<mxfile host="65bd71144e">
    <diagram id="tsA" name="Style-Plain">
        <mxGraphModel dx="1153" dy="583" grid="0" gridSize="10" guides="1" tooltips="1" connect="1" arrows="1" fold="1" page="1" pageScale="1" pageWidth="1169" pageHeight="827" background="#fafafa" math="0" shadow="0">
            <root>
                <mxCell id="page_root_tsA"/>
                <mxCell id="node_root_tsA" parent="page_root_tsA"/>
                <mxCell id="tsA-2" value="Data Sources (Documents)" style="whiteSpace=wrap;html=1;rounded=0;fillColor=#f5f5f5;strokeColor=#666666;fontColor=#333333;fontSize=20;verticalAlign=top" parent="node_root_tsA" vertex="1">
                    <mxGeometry x="5" y="5" width="692" height="478" as="geometry"/>
                </mxCell>
                <mxCell id="a" value="schema.rb" style="whiteSpace=wrap;html=1;rounded=0;fillColor=#ffe6cc;strokeColor=#d79b00;fontColor=#333333;shape=mxgraph.flowchart.database;strokeWidth=1" parent="node_root_tsA" vertex="1">
                    <mxGeometry x="29.5" y="73" width="160" height="40" as="geometry"/>
                </mxCell>
                <mxCell id="b" value="db_schema.json" style="whiteSpace=wrap;html=1;rounded=0;fillColor=#ffe6cc;strokeColor=#d79b00;fontColor=#333333;shape=mxgraph.flowchart.database;strokeWidth=1" parent="node_root_tsA" vertex="1">
                    <mxGeometry x="249.5" y="73" width="160" height="40" as="geometry"/>
                </mxCell>
                <mxCell id="c" value="sql_count (rake/api)" style="whiteSpace=wrap;html=1;rounded=0;fillColor=#ffe6cc;strokeColor=#d79b00;fontColor=#333333;shape=mxgraph.flowchart.database;strokeWidth=1" parent="node_root_tsA" vertex="1">
                    <mxGeometry x="26.5" y="139" width="160" height="40" as="geometry"/>
                </mxCell>
                <mxCell id="d" value="sql_count.json" style="whiteSpace=wrap;html=1;rounded=0;fillColor=#ffe6cc;strokeColor=#d79b00;fontColor=#333333;shape=mxgraph.flowchart.database;strokeWidth=1" parent="node_root_tsA" vertex="1">
                    <mxGeometry x="246.5" y="139" width="160" height="40" as="geometry"/>
                </mxCell>
                <mxCell id="e" value="rubocop (rake/.txt)" style="whiteSpace=wrap;html=1;rounded=0;fillColor=#ffe6cc;strokeColor=#d79b00;fontColor=#333333;shape=mxgraph.flowchart.database;strokeWidth=1" parent="node_root_tsA" vertex="1">
                    <mxGeometry x="26.5" y="213" width="160" height="40" as="geometry"/>
                </mxCell>
                <mxCell id="f" value="rubocop.json" style="whiteSpace=wrap;html=1;rounded=0;fillColor=#ffe6cc;strokeColor=#d79b00;fontColor=#333333;shape=mxgraph.flowchart.database;strokeWidth=1" parent="node_root_tsA" vertex="1">
                    <mxGeometry x="246.5" y="213" width="160" height="40" as="geometry"/>
                </mxCell>
                <mxCell id="g" value="routes.json" style="whiteSpace=wrap;html=1;rounded=0;fillColor=#ffe6cc;strokeColor=#d79b00;fontColor=#333333;shape=mxgraph.flowchart.database;strokeWidth=1" parent="node_root_tsA" vertex="1">
                    <mxGeometry x="246.5" y="283" width="160" height="40" as="geometry"/>
                </mxCell>
                <mxCell id="h" value="model/**/*.rb" style="whiteSpace=wrap;html=1;rounded=0;fillColor=#ffe6cc;strokeColor=#d79b00;fontColor=#333333;shape=mxgraph.flowchart.database;strokeWidth=1" parent="node_root_tsA" vertex="1">
                    <mxGeometry x="244.5" y="354" width="160" height="40" as="geometry"/>
                </mxCell>
                <mxCell id="i" value="controller/**/*.json" style="whiteSpace=wrap;html=1;rounded=0;fillColor=#ffe6cc;strokeColor=#d79b00;fontColor=#333333;shape=mxgraph.flowchart.database;strokeWidth=1" parent="node_root_tsA" vertex="1">
                    <mxGeometry x="246.5" y="425" width="160" height="40" as="geometry"/>
                </mxCell>
                <mxCell id="j" value="domain_model.json" style="whiteSpace=wrap;html=1;rounded=0;fillColor=#ffe6cc;strokeColor=#d79b00;fontColor=#333333;shape=mxgraph.flowchart.database;strokeWidth=1" parent="node_root_tsA" vertex="1">
                    <mxGeometry x="522.5" y="213" width="160" height="40" as="geometry"/>
                </mxCell>
                <mxCell id="tsA-14" value="" style="whiteSpace=wrap;html=1;rounded=0;edgeStyle=none;exitX=1;exitY=0.5;exitDx=0;exitDy=0;entryX=0;entryY=0.5;entryDx=0;entryDy=0;fillColor=#a20025;strokeColor=#6F0000;" parent="node_root_tsA" source="a" target="b" edge="1">
                    <mxGeometry relative="1" as="geometry"/>
                </mxCell>
                <mxCell id="tsA-15" value="" style="whiteSpace=wrap;html=1;rounded=0;edgeStyle=none;exitX=1;exitY=0.5;exitDx=0;exitDy=0;entryX=0;entryY=0.5;entryDx=0;entryDy=0;fillColor=#a20025;strokeColor=#6F0000;" parent="node_root_tsA" source="c" target="d" edge="1">
                    <mxGeometry relative="1" as="geometry"/>
                </mxCell>
                <mxCell id="tsA-16" value="" style="whiteSpace=wrap;html=1;rounded=0;edgeStyle=none;exitX=1;exitY=0.5;exitDx=0;exitDy=0;entryX=0;entryY=0.5;entryDx=0;entryDy=0;fillColor=#a20025;strokeColor=#6F0000;" parent="node_root_tsA" source="e" target="f" edge="1">
                    <mxGeometry relative="1" as="geometry"/>
                </mxCell>
                <mxCell id="tsA-17" value="" style="whiteSpace=wrap;html=1;rounded=0;exitX=1;exitY=0.5;exitDx=0;exitDy=0;entryX=0;entryY=0.5;entryDx=0;entryDy=0;fillColor=#a20025;strokeColor=#6F0000;edgeStyle=entityRelationEdgeStyle;" parent="node_root_tsA" source="b" target="j" edge="1">
                    <mxGeometry relative="1" as="geometry"/>
                </mxCell>
                <mxCell id="tsA-18" value="" style="whiteSpace=wrap;html=1;rounded=0;exitX=1;exitY=0.5;exitDx=0;exitDy=0;entryX=0;entryY=0.5;entryDx=0;entryDy=0;fillColor=#a20025;strokeColor=#6F0000;edgeStyle=entityRelationEdgeStyle;" parent="node_root_tsA" source="d" target="j" edge="1">
                    <mxGeometry relative="1" as="geometry"/>
                </mxCell>
                <mxCell id="tsA-19" value="" style="whiteSpace=wrap;html=1;rounded=0;exitX=1;exitY=0.5;exitDx=0;exitDy=0;entryX=0;entryY=0.5;entryDx=0;entryDy=0;fillColor=#a20025;strokeColor=#6F0000;edgeStyle=entityRelationEdgeStyle;" parent="node_root_tsA" source="f" target="j" edge="1">
                    <mxGeometry relative="1" as="geometry"/>
                </mxCell>
                <mxCell id="tsA-20" value="" style="whiteSpace=wrap;html=1;rounded=0;exitX=1;exitY=0.5;exitDx=0;exitDy=0;entryX=0;entryY=0.5;entryDx=0;entryDy=0;fillColor=#a20025;strokeColor=#6F0000;edgeStyle=entityRelationEdgeStyle;" parent="node_root_tsA" source="g" target="j" edge="1">
                    <mxGeometry relative="1" as="geometry"/>
                </mxCell>
                <mxCell id="tsA-21" value="" style="whiteSpace=wrap;html=1;rounded=0;exitX=1;exitY=0.5;exitDx=0;exitDy=0;entryX=0;entryY=0.5;entryDx=0;entryDy=0;fillColor=#a20025;strokeColor=#6F0000;edgeStyle=entityRelationEdgeStyle;" parent="node_root_tsA" source="h" target="j" edge="1">
                    <mxGeometry relative="1" as="geometry"/>
                </mxCell>
                <mxCell id="tsA-22" value="" style="whiteSpace=wrap;html=1;rounded=0;exitX=1;exitY=0.5;exitDx=0;exitDy=0;entryX=0;entryY=0.5;entryDx=0;entryDy=0;fillColor=#a20025;strokeColor=#6F0000;edgeStyle=entityRelationEdgeStyle;" parent="node_root_tsA" source="i" target="j" edge="1">
                    <mxGeometry relative="1" as="geometry"/>
                </mxCell>
                <mxCell id="ncJzMHtPDMttCXbYRI98-4" value="" style="group" parent="node_root_tsA" vertex="1" connectable="0">
                    <mxGeometry x="874" y="225" width="547" height="257" as="geometry"/>
                </mxCell>
                <mxCell id="ncJzMHtPDMttCXbYRI98-2" value="" style="group" parent="ncJzMHtPDMttCXbYRI98-4" vertex="1" connectable="0">
                    <mxGeometry x="2" y="93" width="547" height="170" as="geometry"/>
                </mxCell>
                <mxCell id="tsA-32" value="Other printers" style="whiteSpace=wrap;html=1;rounded=0;fillColor=#f5f5f5;strokeColor=#666666;fontColor=#333333;fontSize=20;verticalAlign=top" parent="ncJzMHtPDMttCXbYRI98-2" vertex="1">
                    <mxGeometry x="-23" y="-132" width="570" height="302" as="geometry"/>
                </mxCell>
                <mxCell id="ncJzMHtPDMttCXbYRI98-0" value="" style="whiteSpace=wrap;html=1;fillColor=#fad7ac;strokeColor=#b46504;rounded=1;opacity=20;" parent="ncJzMHtPDMttCXbYRI98-2" vertex="1">
                    <mxGeometry width="521.5" height="149" as="geometry"/>
                </mxCell>
                <mxCell id="tsA-38" value="has_ruby" style="whiteSpace=wrap;html=1;rounded=0;fillColor=#ffe6cc;strokeColor=#d79b00;fontColor=#333333" parent="ncJzMHtPDMttCXbYRI98-2" vertex="1">
                    <mxGeometry x="13" y="15" width="90" height="50" as="geometry"/>
                </mxCell>
                <mxCell id="tsA-39" value="missing_ruby" style="whiteSpace=wrap;html=1;rounded=0;fillColor=#ffe6cc;strokeColor=#d79b00;fontColor=#333333" parent="ncJzMHtPDMttCXbYRI98-2" vertex="1">
                    <mxGeometry x="113" y="15" width="90" height="50" as="geometry"/>
                </mxCell>
                <mxCell id="tsA-40" value="has_pk" style="whiteSpace=wrap;html=1;rounded=0;fillColor=#ffe6cc;strokeColor=#d79b00;fontColor=#333333" parent="ncJzMHtPDMttCXbYRI98-2" vertex="1">
                    <mxGeometry x="213" y="15" width="90" height="50" as="geometry"/>
                </mxCell>
                <mxCell id="tsA-41" value="missing_pk" style="whiteSpace=wrap;html=1;rounded=0;fillColor=#ffe6cc;strokeColor=#d79b00;fontColor=#333333" parent="ncJzMHtPDMttCXbYRI98-2" vertex="1">
                    <mxGeometry x="313" y="15" width="90" height="50" as="geometry"/>
                </mxCell>
                <mxCell id="tsA-42" value="low_column" style="whiteSpace=wrap;html=1;rounded=0;fillColor=#ffe6cc;strokeColor=#d79b00;fontColor=#333333" parent="ncJzMHtPDMttCXbYRI98-2" vertex="1">
                    <mxGeometry x="413" y="15" width="90" height="50" as="geometry"/>
                </mxCell>
                <mxCell id="tsA-43" value="fat_column" style="whiteSpace=wrap;html=1;rounded=0;fillColor=#ffe6cc;strokeColor=#d79b00;fontColor=#333333" parent="ncJzMHtPDMttCXbYRI98-2" vertex="1">
                    <mxGeometry x="13" y="85" width="90" height="50" as="geometry"/>
                </mxCell>
                <mxCell id="tsA-44" value="suspected_m2m" style="whiteSpace=wrap;html=1;rounded=0;fillColor=#ffe6cc;strokeColor=#d79b00;fontColor=#333333" parent="ncJzMHtPDMttCXbYRI98-2" vertex="1">
                    <mxGeometry x="113" y="85" width="90" height="50" as="geometry"/>
                </mxCell>
                <mxCell id="tsA-45" value="invalid_types" style="whiteSpace=wrap;html=1;rounded=0;fillColor=#ffe6cc;strokeColor=#d79b00;fontColor=#333333" parent="ncJzMHtPDMttCXbYRI98-2" vertex="1">
                    <mxGeometry x="213" y="85" width="90" height="50" as="geometry"/>
                </mxCell>
                <mxCell id="tsA-46" value="data_columns" style="whiteSpace=wrap;html=1;rounded=0;fillColor=#ffe6cc;strokeColor=#d79b00;fontColor=#333333" parent="ncJzMHtPDMttCXbYRI98-2" vertex="1">
                    <mxGeometry x="313" y="85" width="90" height="50" as="geometry"/>
                </mxCell>
                <mxCell id="tsA-47" value="date_columns" style="whiteSpace=wrap;html=1;rounded=0;fillColor=#ffe6cc;strokeColor=#d79b00;fontColor=#333333" parent="ncJzMHtPDMttCXbYRI98-2" vertex="1">
                    <mxGeometry x="413" y="85" width="90" height="50" as="geometry"/>
                </mxCell>
                <mxCell id="ncJzMHtPDMttCXbYRI98-3" style="edgeStyle=none;shape=connector;rounded=0;html=1;exitX=0.584;exitY=0.957;exitDx=0;exitDy=0;labelBackgroundColor=default;fontFamily=Helvetica;fontSize=11;fontColor=default;endArrow=classic;strokeColor=#6F0000;fillColor=#a20025;exitPerimeter=0;entryX=0.5;entryY=0;entryDx=0;entryDy=0;" parent="ncJzMHtPDMttCXbYRI98-4" source="tsA-35" target="ncJzMHtPDMttCXbYRI98-0" edge="1">
                    <mxGeometry relative="1" as="geometry">
                        <mxPoint x="340.2993698120117" y="75.8362808227539" as="targetPoint"/>
                    </mxGeometry>
                </mxCell>
                <mxCell id="tsA-34" value="routes" style="whiteSpace=wrap;html=1;rounded=0;fillColor=#d5e8d4;strokeColor=#82b366;fontColor=#333333;shape=mxgraph.basic.cloud_rect" parent="ncJzMHtPDMttCXbYRI98-4" vertex="1">
                    <mxGeometry x="46" y="2" width="75" height="50" as="geometry"/>
                </mxCell>
                <mxCell id="tsA-35" value="models" style="whiteSpace=wrap;html=1;rounded=0;fillColor=#d5e8d4;strokeColor=#82b366;fontColor=#333333;shape=mxgraph.basic.cloud_rect" parent="ncJzMHtPDMttCXbYRI98-4" vertex="1">
                    <mxGeometry x="217.5" width="75" height="50" as="geometry"/>
                </mxCell>
                <mxCell id="tsA-36" value="controllers" style="whiteSpace=wrap;html=1;rounded=0;fillColor=#d5e8d4;strokeColor=#82b366;fontColor=#333333;shape=mxgraph.basic.cloud_rect" parent="ncJzMHtPDMttCXbYRI98-4" vertex="1">
                    <mxGeometry x="399.5" width="75" height="50" as="geometry"/>
                </mxCell>
                <mxCell id="ncJzMHtPDMttCXbYRI98-5" value="" style="group" parent="node_root_tsA" vertex="1" connectable="0">
                    <mxGeometry x="899" y="7" width="467" height="120" as="geometry"/>
                </mxCell>
                <mxCell id="tsA-24" value="DB Schema printers" style="whiteSpace=wrap;html=1;rounded=0;fillColor=#f5f5f5;strokeColor=#666666;fontColor=#333333;fontSize=20;verticalAlign=top" parent="ncJzMHtPDMttCXbYRI98-5" vertex="1">
                    <mxGeometry width="467" height="120" as="geometry"/>
                </mxCell>
                <mxCell id="tsA-26" value="stats" style="whiteSpace=wrap;html=1;rounded=0;fillColor=#d5e8d4;strokeColor=#82b366;fontColor=#333333;shape=mxgraph.basic.cloud_rect" parent="ncJzMHtPDMttCXbYRI98-5" vertex="1">
                    <mxGeometry x="15" y="51" width="75" height="50" as="geometry"/>
                </mxCell>
                <mxCell id="tsA-27" value="tables" style="whiteSpace=wrap;html=1;rounded=0;fillColor=#d5e8d4;strokeColor=#82b366;fontColor=#333333;shape=mxgraph.basic.cloud_rect" parent="ncJzMHtPDMttCXbYRI98-5" vertex="1">
                    <mxGeometry x="105" y="51" width="75" height="50" as="geometry"/>
                </mxCell>
                <mxCell id="tsA-28" value="foreign_keys" style="whiteSpace=wrap;html=1;rounded=0;fillColor=#d5e8d4;strokeColor=#82b366;fontColor=#333333;shape=mxgraph.basic.cloud_rect" parent="ncJzMHtPDMttCXbYRI98-5" vertex="1">
                    <mxGeometry x="195" y="51" width="75" height="50" as="geometry"/>
                </mxCell>
                <mxCell id="tsA-29" value="indexes" style="whiteSpace=wrap;html=1;rounded=0;fillColor=#d5e8d4;strokeColor=#82b366;fontColor=#333333;shape=mxgraph.basic.cloud_rect" parent="ncJzMHtPDMttCXbYRI98-5" vertex="1">
                    <mxGeometry x="285" y="51" width="75" height="50" as="geometry"/>
                </mxCell>
                <mxCell id="tsA-30" value="dictionary" style="whiteSpace=wrap;html=1;rounded=0;fillColor=#d5e8d4;strokeColor=#82b366;fontColor=#333333;shape=mxgraph.basic.cloud_rect" parent="ncJzMHtPDMttCXbYRI98-5" vertex="1">
                    <mxGeometry x="375" y="51" width="75" height="50" as="geometry"/>
                </mxCell>
                <mxCell id="ncJzMHtPDMttCXbYRI98-7" value="" style="group" parent="node_root_tsA" vertex="1" connectable="0">
                    <mxGeometry x="1568" y="139" width="644.5" height="256" as="geometry"/>
                </mxCell>
                <mxCell id="tsA-49" value="Generators" style="whiteSpace=wrap;html=1;rounded=0;fillColor=#f5f5f5;strokeColor=#666666;fontColor=#333333;fontSize=20;verticalAlign=top" parent="ncJzMHtPDMttCXbYRI98-7" vertex="1">
                    <mxGeometry width="644.5" height="256" as="geometry"/>
                </mxCell>
                <mxCell id="tsA-51" value="Factory data" style="whiteSpace=wrap;html=1;rounded=0;fillColor=#fff2cc;strokeColor=#d6b656;fontColor=#333333;shape=process" parent="ncJzMHtPDMttCXbYRI98-7" vertex="1">
                    <mxGeometry x="38.5" y="56" width="120" height="70" as="geometry"/>
                </mxCell>
                <mxCell id="tsA-52" value="Model DSL specs (CRUD / Association)" style="whiteSpace=wrap;html=1;rounded=0;fillColor=#fff2cc;strokeColor=#d6b656;fontColor=#333333;shape=process" parent="ncJzMHtPDMttCXbYRI98-7" vertex="1">
                    <mxGeometry x="188.5" y="56" width="120" height="70" as="geometry"/>
                </mxCell>
                <mxCell id="tsA-53" value="Model API specs" style="whiteSpace=wrap;html=1;rounded=0;fillColor=#fff2cc;strokeColor=#d6b656;fontColor=#333333;shape=process" parent="ncJzMHtPDMttCXbYRI98-7" vertex="1">
                    <mxGeometry x="338.5" y="56" width="120" height="70" as="geometry"/>
                </mxCell>
                <mxCell id="tsA-54" value="Controller request specs" style="whiteSpace=wrap;html=1;rounded=0;fillColor=#fff2cc;strokeColor=#d6b656;fontColor=#333333;shape=process" parent="ncJzMHtPDMttCXbYRI98-7" vertex="1">
                    <mxGeometry x="488.5" y="56" width="120" height="70" as="geometry"/>
                </mxCell>
                <mxCell id="tsA-55" value="Query + spec" style="whiteSpace=wrap;html=1;rounded=0;fillColor=#fff2cc;strokeColor=#d6b656;fontColor=#333333;shape=process" parent="ncJzMHtPDMttCXbYRI98-7" vertex="1">
                    <mxGeometry x="38.5" y="156" width="120" height="70" as="geometry"/>
                </mxCell>
                <mxCell id="tsA-56" value="Decorator + spec" style="whiteSpace=wrap;html=1;rounded=0;fillColor=#fff2cc;strokeColor=#d6b656;fontColor=#333333;shape=process" parent="ncJzMHtPDMttCXbYRI98-7" vertex="1">
                    <mxGeometry x="188.5" y="156" width="120" height="70" as="geometry"/>
                </mxCell>
                <mxCell id="tsA-57" value="Presentor + spec" style="whiteSpace=wrap;html=1;rounded=0;fillColor=#fff2cc;strokeColor=#d6b656;fontColor=#333333;shape=process" parent="ncJzMHtPDMttCXbYRI98-7" vertex="1">
                    <mxGeometry x="338.5" y="156" width="120" height="70" as="geometry"/>
                </mxCell>
                <mxCell id="12" value="" style="group" parent="node_root_tsA" vertex="1" connectable="0">
                    <mxGeometry x="268" y="590" width="1746" height="620" as="geometry"/>
                </mxCell>
                <mxCell id="tsA-60" value="Reports" style="whiteSpace=wrap;html=1;rounded=0;fillColor=#f5f5f5;strokeColor=#666666;fontColor=#333333;fontSize=20;verticalAlign=top" parent="12" vertex="1">
                    <mxGeometry width="1746" height="620" as="geometry"/>
                </mxCell>
                <mxCell id="7" value="" style="group" parent="12" vertex="1" connectable="0">
                    <mxGeometry x="830" y="48" width="882.5" height="156" as="geometry"/>
                </mxCell>
                <mxCell id="tsA-77" value="rubocop" style="whiteSpace=wrap;html=1;rounded=0;fillColor=#f8cecc;strokeColor=#b85450;fontColor=#333333" parent="7" vertex="1">
                    <mxGeometry x="765" y="33" width="90" height="90" as="geometry"/>
                </mxCell>
                <mxCell id="tsA-94" value="Diff or Conflict" style="whiteSpace=wrap;html=1;rounded=0;fillColor=#fff2cc;strokeColor=#d6b656;fontColor=#333333;shape=note" parent="7" vertex="1">
                    <mxGeometry y="18" width="120" height="120" as="geometry"/>
                </mxCell>
                <mxCell id="tsA-95" value="factory data &lt;i&gt;missing data/models&lt;/i&gt;" style="whiteSpace=wrap;html=1;rounded=0;fillColor=#f8cecc;strokeColor=#b85450;fontColor=#333333" parent="7" vertex="1">
                    <mxGeometry x="165" y="33" width="90" height="90" as="geometry"/>
                </mxCell>
                <mxCell id="tsA-96" value="model DSL specs &lt;i&gt;missing data/associations&lt;/i&gt;" style="whiteSpace=wrap;html=1;rounded=0;fillColor=#f8cecc;strokeColor=#b85450;fontColor=#333333" parent="7" vertex="1">
                    <mxGeometry x="315" y="33" width="90" height="90" as="geometry"/>
                </mxCell>
                <mxCell id="tsA-97" value="model API specs &lt;i&gt;missing methods&lt;/i&gt;" style="whiteSpace=wrap;html=1;rounded=0;fillColor=#f8cecc;strokeColor=#b85450;fontColor=#333333" parent="7" vertex="1">
                    <mxGeometry x="465" y="33" width="90" height="90" as="geometry"/>
                </mxCell>
                <mxCell id="tsA-98" value="route / controller action &lt;i&gt;mismatch&lt;/i&gt;" style="whiteSpace=wrap;html=1;rounded=0;fillColor=#f8cecc;strokeColor=#b85450;fontColor=#333333" parent="7" vertex="1">
                    <mxGeometry x="615" y="33" width="90" height="90" as="geometry"/>
                </mxCell>
                <mxCell id="6" value="" style="whiteSpace=wrap;html=1;fillColor=#e51400;strokeColor=#B20000;rounded=1;opacity=5;fontColor=#ffffff;" parent="7" vertex="1">
                    <mxGeometry x="137.5" width="745" height="156" as="geometry"/>
                </mxCell>
                <mxCell id="8" value="" style="group" parent="12" vertex="1" connectable="0">
                    <mxGeometry x="827" y="428" width="882.5" height="156" as="geometry"/>
                </mxCell>
                <mxCell id="tsA-87" value="Target patterns" style="whiteSpace=wrap;html=1;rounded=0;fillColor=#fff2cc;strokeColor=#d6b656;fontColor=#333333;shape=note" parent="8" vertex="1">
                    <mxGeometry y="18" width="120" height="120" as="geometry"/>
                </mxCell>
                <mxCell id="tsA-88" value="decorators" style="whiteSpace=wrap;html=1;rounded=0;fillColor=#f8cecc;strokeColor=#b85450;fontColor=#333333" parent="8" vertex="1">
                    <mxGeometry x="165" y="33" width="90" height="90" as="geometry"/>
                </mxCell>
                <mxCell id="tsA-89" value="presenters" style="whiteSpace=wrap;html=1;rounded=0;fillColor=#f8cecc;strokeColor=#b85450;fontColor=#333333" parent="8" vertex="1">
                    <mxGeometry x="315" y="33" width="90" height="90" as="geometry"/>
                </mxCell>
                <mxCell id="tsA-90" value="queries" style="whiteSpace=wrap;html=1;rounded=0;fillColor=#f8cecc;strokeColor=#b85450;fontColor=#333333" parent="8" vertex="1">
                    <mxGeometry x="465" y="33" width="90" height="90" as="geometry"/>
                </mxCell>
                <mxCell id="tsA-91" value="commands" style="whiteSpace=wrap;html=1;rounded=0;fillColor=#f8cecc;strokeColor=#b85450;fontColor=#333333" parent="8" vertex="1">
                    <mxGeometry x="615" y="33" width="90" height="90" as="geometry"/>
                </mxCell>
                <mxCell id="tsA-92" value="form objects" style="whiteSpace=wrap;html=1;rounded=0;fillColor=#f8cecc;strokeColor=#b85450;fontColor=#333333" parent="8" vertex="1">
                    <mxGeometry x="765" y="33" width="90" height="90" as="geometry"/>
                </mxCell>
                <mxCell id="5" value="" style="whiteSpace=wrap;html=1;fillColor=#e51400;strokeColor=#B20000;rounded=1;opacity=5;fontColor=#ffffff;" parent="8" vertex="1">
                    <mxGeometry x="137.5" width="745" height="156" as="geometry"/>
                </mxCell>
                <mxCell id="9" value="" style="group" parent="12" vertex="1" connectable="0">
                    <mxGeometry x="829" y="236" width="883" height="156" as="geometry"/>
                </mxCell>
                <mxCell id="tsA-80" value="Anti patterns" style="whiteSpace=wrap;html=1;rounded=0;fillColor=#fff2cc;strokeColor=#d6b656;fontColor=#333333;shape=note" parent="9" vertex="1">
                    <mxGeometry y="18" width="120" height="120" as="geometry"/>
                </mxCell>
                <mxCell id="tsA-81" value="god classes" style="whiteSpace=wrap;html=1;rounded=0;fillColor=#f8cecc;strokeColor=#b85450;fontColor=#333333" parent="9" vertex="1">
                    <mxGeometry x="165" y="33" width="90" height="90" as="geometry"/>
                </mxCell>
                <mxCell id="tsA-82" value="fat controllers" style="whiteSpace=wrap;html=1;rounded=0;fillColor=#f8cecc;strokeColor=#b85450;fontColor=#333333" parent="9" vertex="1">
                    <mxGeometry x="315" y="33" width="90" height="90" as="geometry"/>
                </mxCell>
                <mxCell id="tsA-83" value="fat models" style="whiteSpace=wrap;html=1;rounded=0;fillColor=#f8cecc;strokeColor=#b85450;fontColor=#333333" parent="9" vertex="1">
                    <mxGeometry x="465" y="33" width="90" height="90" as="geometry"/>
                </mxCell>
                <mxCell id="tsA-84" value="fat views vs components" style="whiteSpace=wrap;html=1;rounded=0;fillColor=#f8cecc;strokeColor=#b85450;fontColor=#333333" parent="9" vertex="1">
                    <mxGeometry x="615" y="33" width="90" height="90" as="geometry"/>
                </mxCell>
                <mxCell id="tsA-85" value="interpolated SQL" style="whiteSpace=wrap;html=1;rounded=0;fillColor=#f8cecc;strokeColor=#b85450;fontColor=#333333" parent="9" vertex="1">
                    <mxGeometry x="765" y="33" width="90" height="90" as="geometry"/>
                </mxCell>
                <mxCell id="4" value="" style="whiteSpace=wrap;html=1;fillColor=#e51400;strokeColor=#B20000;rounded=1;opacity=5;fontColor=#ffffff;" parent="9" vertex="1">
                    <mxGeometry x="138" width="745" height="156" as="geometry"/>
                </mxCell>
                <mxCell id="10" value="" style="group" parent="12" vertex="1" connectable="0">
                    <mxGeometry x="38" y="44" width="734" height="156" as="geometry"/>
                </mxCell>
                <mxCell id="tsA-73" value="ERD" style="whiteSpace=wrap;html=1;rounded=0;fillColor=#fff2cc;strokeColor=#d6b656;fontColor=#333333;shape=note" parent="10" vertex="1">
                    <mxGeometry y="16" width="120" height="120" as="geometry"/>
                </mxCell>
                <mxCell id="tsA-74" value="agg roots" style="whiteSpace=wrap;html=1;rounded=0;fillColor=#f8cecc;strokeColor=#b85450;fontColor=#333333" parent="10" vertex="1">
                    <mxGeometry x="165" y="31" width="90" height="90" as="geometry"/>
                </mxCell>
                <mxCell id="tsA-75" value="many to many" style="whiteSpace=wrap;html=1;rounded=0;fillColor=#f8cecc;strokeColor=#b85450;fontColor=#333333" parent="10" vertex="1">
                    <mxGeometry x="315" y="31" width="90" height="90" as="geometry"/>
                </mxCell>
                <mxCell id="tsA-76" value="leaf tables" style="whiteSpace=wrap;html=1;rounded=0;fillColor=#f8cecc;strokeColor=#b85450;fontColor=#333333" parent="10" vertex="1">
                    <mxGeometry x="465" y="31" width="90" height="90" as="geometry"/>
                </mxCell>
                <mxCell id="tsA-78" value="SQL counts" style="whiteSpace=wrap;html=1;rounded=0;fillColor=#f8cecc;strokeColor=#b85450;fontColor=#333333" parent="10" vertex="1">
                    <mxGeometry x="624" y="28" width="90" height="90" as="geometry"/>
                </mxCell>
                <mxCell id="ncJzMHtPDMttCXbYRI98-26" value="" style="whiteSpace=wrap;html=1;fillColor=#e51400;strokeColor=#B20000;rounded=1;opacity=5;fontColor=#ffffff;" parent="10" vertex="1">
                    <mxGeometry x="140" width="594" height="156" as="geometry"/>
                </mxCell>
                <mxCell id="11" value="" style="group" parent="12" vertex="1" connectable="0">
                    <mxGeometry x="38" y="303" width="734" height="262" as="geometry"/>
                </mxCell>
                <mxCell id="tsA-62" value="Tests" style="whiteSpace=wrap;html=1;rounded=0;fillColor=#fff2cc;strokeColor=#d6b656;fontColor=#333333;shape=note" parent="11" vertex="1">
                    <mxGeometry y="67" width="120" height="120" as="geometry"/>
                </mxCell>
                <mxCell id="tsA-63" value="coverage" style="whiteSpace=wrap;html=1;rounded=0;fillColor=#f8cecc;strokeColor=#b85450;fontColor=#333333" parent="11" vertex="1">
                    <mxGeometry x="166.5" y="19" width="90" height="90" as="geometry"/>
                </mxCell>
                <mxCell id="tsA-64" value="model DSL" style="whiteSpace=wrap;html=1;rounded=0;fillColor=#f8cecc;strokeColor=#b85450;fontColor=#333333" parent="11" vertex="1">
                    <mxGeometry x="316.5" y="19" width="90" height="90" as="geometry"/>
                </mxCell>
                <mxCell id="tsA-65" value="model API" style="whiteSpace=wrap;html=1;rounded=0;fillColor=#f8cecc;strokeColor=#b85450;fontColor=#333333" parent="11" vertex="1">
                    <mxGeometry x="466.5" y="19" width="90" height="90" as="geometry"/>
                </mxCell>
                <mxCell id="tsA-66" value="controller request" style="whiteSpace=wrap;html=1;rounded=0;fillColor=#f8cecc;strokeColor=#b85450;fontColor=#333333" parent="11" vertex="1">
                    <mxGeometry x="616.5" y="19" width="90" height="90" as="geometry"/>
                </mxCell>
                <mxCell id="tsA-67" value="controller commands" style="whiteSpace=wrap;html=1;rounded=0;fillColor=#f8cecc;strokeColor=#b85450;fontColor=#333333" parent="11" vertex="1">
                    <mxGeometry x="166.5" y="153" width="90" height="90" as="geometry"/>
                </mxCell>
                <mxCell id="tsA-68" value="query" style="whiteSpace=wrap;html=1;rounded=0;fillColor=#f8cecc;strokeColor=#b85450;fontColor=#333333" parent="11" vertex="1">
                    <mxGeometry x="316.5" y="153" width="90" height="90" as="geometry"/>
                </mxCell>
                <mxCell id="tsA-69" value="decorator" style="whiteSpace=wrap;html=1;rounded=0;fillColor=#f8cecc;strokeColor=#b85450;fontColor=#333333" parent="11" vertex="1">
                    <mxGeometry x="466.5" y="153" width="90" height="90" as="geometry"/>
                </mxCell>
                <mxCell id="tsA-70" value="presentor" style="whiteSpace=wrap;html=1;rounded=0;fillColor=#f8cecc;strokeColor=#b85450;fontColor=#333333" parent="11" vertex="1">
                    <mxGeometry x="616.5" y="153" width="90" height="90" as="geometry"/>
                </mxCell>
                <mxCell id="ncJzMHtPDMttCXbYRI98-11" value="" style="whiteSpace=wrap;html=1;fillColor=#e51400;strokeColor=#B20000;rounded=1;opacity=5;fontColor=#ffffff;" parent="11" vertex="1">
                    <mxGeometry x="141" width="593" height="262" as="geometry"/>
                </mxCell>
                <mxCell id="15" style="edgeStyle=none;shape=connector;rounded=0;html=1;exitX=1;exitY=0.5;exitDx=0;exitDy=0;exitPerimeter=0;entryX=0;entryY=0.5;entryDx=0;entryDy=0;entryPerimeter=0;labelBackgroundColor=default;fontFamily=Helvetica;fontSize=11;fontColor=default;endArrow=classic;strokeColor=#6F0000;fillColor=#a20025;" edge="1" parent="node_root_tsA" source="13" target="g">
                    <mxGeometry relative="1" as="geometry"/>
                </mxCell>
                <mxCell id="13" value="rake routes:json&lt;br&gt;" style="whiteSpace=wrap;html=1;rounded=0;fillColor=#ffe6cc;strokeColor=#d79b00;fontColor=#333333;shape=mxgraph.flowchart.database;strokeWidth=1" vertex="1" parent="node_root_tsA">
                    <mxGeometry x="26.5" y="283" width="160" height="40" as="geometry"/>
                </mxCell>
            </root>
        </mxGraphModel>
    </diagram>
</mxfile>